<?xml version="1.0" standalone="no"?>
<!DOCTYPE svg PUBLIC "-//W3C//DTD SVG 20010904//EN"
 "http://www.w3.org/TR/2001/REC-SVG-20010904/DTD/svg10.dtd">
<svg version="1.0" xmlns="http://www.w3.org/2000/svg"
 width="1689.000000pt" height="446.000000pt" viewBox="0 0 1689.000000 446.000000"
 preserveAspectRatio="xMidYMid meet">

<g transform="translate(0.000000,446.000000) scale(0.100000,-0.100000)"
fill="#000000" stroke="none">
<path d="M1 3888 c1 -504 2 -566 14 -517 22 89 60 164 110 218 80 85 46 81
623 81 l510 0 48 -33 c56 -38 110 -114 145 -202 l24 -60 3 -809 c2 -705 1
-816 -13 -870 -33 -129 -105 -233 -189 -272 l-51 -24 -482 0 c-314 0 -492 4
-510 11 -104 39 -201 179 -226 329 -2 14 -5 -372 -6 -857 l-1 -883 8445 0
8445 0 0 2230 0 2230 -8445 0 -8445 0 1 -572z m3163 -261 c20 -16 49 -47 64
-70 l27 -41 0 -405 0 -406 -27 -46 c-15 -25 -46 -59 -69 -75 l-42 -29 -434 -3
-433 -3 0 -224 0 -225 -115 0 -115 0 0 561 0 561 101 109 101 109 -101 0 -101
0 0 110 0 110 553 -2 554 -3 37 -28z m1740 0 c20 -16 49 -47 64 -70 l27 -41 0
-405 0 -406 -27 -46 c-15 -25 -46 -59 -69 -75 l-42 -29 -434 -3 -433 -3 0
-224 0 -225 -115 0 -115 0 0 563 0 562 99 105 99 105 -99 3 -99 3 0 110 0 109
553 -2 554 -3 37 -28z m1695 13 c48 -24 87 -70 101 -118 8 -25 10 -236 8 -663
l-3 -626 -35 -46 c-19 -25 -54 -55 -77 -67 -40 -20 -51 -21 -510 -18 l-469 3
-42 27 c-22 15 -54 49 -69 75 l-28 48 -3 604 c-3 672 -2 678 62 739 65 64 46
62 559 62 445 0 470 -1 506 -20z m1747 4 c45 -22 98 -84 112 -133 19 -62 16
-723 -3 -788 -34 -113 -86 -142 -257 -143 -110 0 -118 -1 -118 -19 0 -11 4
-22 9 -26 15 -8 401 -423 401 -429 0 -3 -67 -6 -148 -6 l-148 0 -184 202
c-102 111 -210 229 -240 263 -30 33 -83 90 -117 126 -35 36 -63 69 -63 72 0 4
144 7 320 7 l320 0 0 335 0 335 -385 0 -385 0 0 -670 0 -670 -115 0 -115 0 0
563 0 563 101 107 101 107 -101 0 -101 0 0 110 0 110 541 0 c479 0 545 -2 575
-16z m1434 -94 l0 -110 -215 0 -215 0 0 -670 0 -670 -120 0 -120 0 0 670 0
670 -212 2 -213 3 -3 108 -3 107 551 0 550 0 0 -110z m510 -560 l0 -670 385 0
385 0 0 670 0 670 120 0 120 0 0 -780 0 -780 -120 0 -120 0 0 92 0 92 -86 -92
-86 -92 -327 0 c-182 0 -342 4 -361 10 -20 5 -52 27 -72 47 -71 73 -68 35 -68
808 l0 695 115 0 115 0 0 -670z m2129 282 c90 -213 216 -510 280 -659 l115
-273 58 0 58 0 -32 58 c-17 31 -38 66 -45 77 -10 15 -13 136 -13 602 l0 583
120 0 120 0 0 -780 0 -780 -208 0 -209 0 -81 193 c-45 105 -171 401 -279 657
l-199 465 -57 3 c-31 2 -57 0 -57 -3 0 -3 18 -41 40 -84 l40 -78 0 -576 0
-577 -115 0 -115 0 0 780 0 780 208 0 207 0 164 -388z m1421 -392 l0 -780
-115 0 -115 0 0 780 0 780 115 0 115 0 0 -780z m1380 670 l0 -110 -215 0 -215
0 0 -670 0 -670 -120 0 -120 0 0 670 0 670 -212 2 -213 3 -3 108 -3 107 551 0
550 0 0 -110z m460 -335 l0 -445 385 0 385 0 0 445 0 445 120 0 120 0 0 -462
c0 -270 -4 -478 -10 -498 -13 -49 -66 -109 -114 -131 -35 -16 -67 -19 -208
-19 l-168 0 0 -225 0 -225 -120 0 -120 0 0 225 0 225 -170 0 c-138 0 -177 3
-203 16 -45 23 -86 63 -108 106 -18 35 -19 64 -19 513 l0 475 115 0 115 0 0
-445z m-4290 -1590 l0 -95 -80 0 -80 0 0 95 0 95 80 0 80 0 0 -95z m-6660
-245 l160 0 0 -75 0 -75 -160 0 -160 0 2 -277 3 -278 158 -3 157 -3 0 -69 0
-70 -174 0 c-202 0 -231 7 -273 72 l-28 41 -3 293 -3 293 -109 3 -108 3 66 73
c63 68 69 72 110 72 l42 0 0 83 1 82 77 83 77 83 3 -166 2 -165 160 0z m4680
0 l160 0 0 -75 0 -75 -160 0 -160 0 2 -277 3 -278 158 -3 157 -3 0 -69 0 -70
-175 0 c-201 0 -234 9 -276 77 -24 37 -24 43 -27 331 l-3 292 -110 0 -110 0
67 75 c64 71 69 75 111 75 l43 0 0 81 0 81 78 85 77 85 3 -166 2 -166 160 0z
m1980 -405 l0 -445 -80 0 -80 0 0 365 0 365 76 80 c42 44 78 80 80 80 2 0 4
-200 4 -445z m-8711 388 c-8 -9 -38 -43 -68 -75 l-54 -58 -194 0 -194 0 3 -97
3 -98 192 -5 192 -5 36 -35 c47 -46 58 -91 53 -230 -4 -129 -16 -163 -70 -202
-32 -23 -39 -23 -300 -26 l-268 -3 0 70 0 71 238 2 237 3 3 107 3 107 -189 3
c-183 3 -189 4 -219 28 -54 44 -66 74 -71 184 -2 60 0 118 7 144 15 53 60 106
103 119 19 7 144 11 302 12 250 1 267 0 255 -16z m4544 -16 c73 -55 72 -50 75
-455 l3 -362 -81 0 -80 0 0 55 c0 30 -4 55 -8 55 -5 0 -36 -25 -69 -55 l-61
-55 -189 0 c-204 0 -225 5 -267 57 -33 41 -44 90 -45 193 -1 113 9 159 40 199
46 58 63 61 329 61 l242 0 -62 -70 -62 -70 -162 -2 -161 -3 0 -110 0 -110 235
0 235 0 3 277 2 278 -316 2 -317 3 68 73 69 73 271 -3 272 -3 36 -28z m6619 5
c22 -14 45 -40 58 -67 20 -42 21 -55 18 -348 l-3 -304 -29 -37 c-49 -65 -63
-67 -376 -64 -263 3 -280 4 -306 24 -15 11 -37 33 -48 48 -20 26 -21 43 -24
324 -2 163 -1 311 3 327 3 17 17 46 33 63 48 57 76 62 372 59 257 -2 266 -3
302 -25z m1986 -33 l3 -57 57 60 56 59 201 -3 c230 -3 251 -10 292 -87 23 -44
23 -47 23 -403 l0 -358 -80 0 -80 0 0 350 0 350 -235 0 -235 0 0 -350 0 -350
-80 0 -80 0 0 425 0 426 78 -3 77 -3 3 -56z"/>
<path d="M2250 3015 c0 -336 3 -423 13 -418 6 3 46 43 87 88 l75 83 298 1 297
1 0 335 0 335 -385 0 -385 0 0 -425z"/>
<path d="M3990 3015 c0 -336 3 -423 13 -418 6 3 46 43 87 88 l75 83 298 1 297
1 0 335 0 335 -385 0 -385 0 0 -425z"/>
<path d="M5710 2880 l0 -560 385 0 385 0 0 560 0 560 -385 0 -385 0 0 -560z"/>
<path d="M13290 950 l0 -280 235 0 235 0 0 280 0 280 -235 0 -235 0 0 -280z"/>
<path d="M226 3148 c-3 -150 -9 -546 -12 -879 l-6 -606 523 -6 c288 -3 527 -2
530 1 3 4 4 402 1 885 l-5 877 -512 0 -513 0 -6 -272z"/>
</g>
</svg>
